HIERARCHY
ROOT Hips
{
	OFFSET 0.000000 0.000000 0.000000
	CHANNELS 6 Xposition Yposition Zposition Xrotation Yrotation Zrotation
	JOINT LeftUpLeg_virtual
	{
		OFFSET 0.000000 0.000000 0.000000
		CHANNELS 3 Xrotation Yrotation Zrotation
		JOINT LeftUpLeg
		{
			OFFSET 13.026900 -6.336304 -1.092800
			CHANNELS 3 Xrotation Yrotation Zrotation
			JOINT LeftLeg
			{
				OFFSET 0.524474 -46.096886 9.782700
				CHANNELS 3 Xrotation Yrotation Zrotation
				JOINT LeftFoot
				{
					OFFSET -0.524474 -53.427422 -12.948200
					CHANNELS 3 Xrotation Yrotation Zrotation
					JOINT LeftToeBase
					{
						OFFSET 0.192200 -14.009700 16.364100
						CHANNELS 3 Xrotation Yrotation Zrotation
						JOINT LeftToe_End
						{
							OFFSET -1.784700 -0.561700 9.474800
							CHANNELS 3 Xrotation Yrotation Zrotation
							End Site
							{
								OFFSET 0 0 0
							}
						}
					}
				}
			}
		}
	}
	JOINT RightUpLeg_virtual
	{
		OFFSET 0.000000 0.000000 0.000000
		CHANNELS 3 Xrotation Yrotation Zrotation
		JOINT RightUpLeg
		{
			OFFSET -12.883000 -6.336304 -1.092800
			CHANNELS 3 Xrotation Yrotation Zrotation
			JOINT RightLeg
			{
				OFFSET -0.524587 -46.096825 9.782800
				CHANNELS 3 Xrotation Yrotation Zrotation
				JOINT RightFoot
				{
					OFFSET 0.524587 -53.427383 -12.948300
					CHANNELS 3 Xrotation Yrotation Zrotation
					JOINT RightToeBase
					{
						OFFSET -0.192200 -14.009700 16.364100
						CHANNELS 3 Xrotation Yrotation Zrotation
						JOINT RightToe_End
						{
							OFFSET 1.784700 -0.561700 9.474800
							CHANNELS 3 Xrotation Yrotation Zrotation
							End Site
							{
								OFFSET 0 0 0
							}
						}
					}
				}
			}
		}
	}
	JOINT Spine_virtual
	{
		OFFSET 0.000000 0.000000 0.000000
		CHANNELS 3 Xrotation Yrotation Zrotation
		JOINT Spine
		{
			OFFSET 0.072000 7.257294 -0.789700
			CHANNELS 3 Xrotation Yrotation Zrotation
			JOINT Spine1
			{
				OFFSET 0.000000 12.508769 -0.658067
				CHANNELS 3 Xrotation Yrotation Zrotation
				JOINT Spine1_split
				{
					OFFSET 0.000000 12.508769 -0.658067
					CHANNELS 3 Xrotation Yrotation Zrotation
					JOINT Spine2
					{
						OFFSET 0.000000 12.508769 -0.658067
						CHANNELS 3 Xrotation Yrotation Zrotation
						JOINT Neck_virtual
						{
							OFFSET 0.000000 0.000000 0.000000
							CHANNELS 3 Xrotation Yrotation Zrotation
							JOINT Neck
							{
								OFFSET 0.000000 14.033295 7.520400
								CHANNELS 3 Xrotation Yrotation Zrotation
								JOINT Head
								{
									OFFSET 0.000000 8.198502 5.703100
									CHANNELS 3 Xrotation Yrotation Zrotation
									JOINT HeadTop_End
									{
										OFFSET 0.000000 17.760803 13.332701
										CHANNELS 3 Xrotation Yrotation Zrotation
										End Site
										{
											OFFSET 0 0 0
										}
									}
								}
							}
						}
						JOINT LeftShoulder_virtual
						{
							OFFSET 0.000000 0.000000 0.000000
							CHANNELS 3 Xrotation Yrotation Zrotation
							JOINT LeftShoulder
							{
								OFFSET 6.292450 5.785301 -0.669000
								CHANNELS 3 Xrotation Yrotation Zrotation
								JOINT LeftShoulder_split
								{
									OFFSET 6.292450 5.785301 -0.669000
									CHANNELS 3 Xrotation Yrotation Zrotation
									JOINT LeftArm
									{
										OFFSET 13.907140 -6.093903 1.965100
										CHANNELS 3 Xrotation Yrotation Zrotation
										JOINT LeftForeArm
										{
											OFFSET 34.140198 0.000000 0.000000
											CHANNELS 3 Xrotation Yrotation Zrotation
											JOINT LeftHand
											{
												OFFSET 40.960209 0.000000 0.000000
												CHANNELS 3 Xrotation Yrotation Zrotation
												End Site
												{
													OFFSET 0 0 0
												}
											}
										}
									}
								}
							}
						}
						JOINT RightShoulder_virtual
						{
							OFFSET 0.000000 0.000000 0.000000
							CHANNELS 3 Xrotation Yrotation Zrotation
							JOINT RightShoulder
							{
								OFFSET -6.292450 5.785301 -0.669000
								CHANNELS 3 Xrotation Yrotation Zrotation
								JOINT RightShoulder_split
								{
									OFFSET -6.292450 5.785301 -0.669000
									CHANNELS 3 Xrotation Yrotation Zrotation
									JOINT RightArm
									{
										OFFSET -13.907140 -6.093903 1.965100
										CHANNELS 3 Xrotation Yrotation Zrotation
										JOINT RightForeArm
										{
											OFFSET -34.140198 0.000000 0.000000
											CHANNELS 3 Xrotation Yrotation Zrotation
											JOINT RightHand
											{
												OFFSET -40.960209 0.000000 0.000000
												CHANNELS 3 Xrotation Yrotation Zrotation
												End Site
												{
													OFFSET 0 0 0
												}
											}
										}
									}
								}
							}
						}
					}
				}
			}
		}
	}
}
MOTION
Frames: 11
Frame Time: 0.03333333
-6.363639 126.655060 216.036728 0.000000 0.000000 0.000000 19.779444 4.843126 2.397390 -23.053142 13.575710 9.872460 44.350174 13.206121 4.090299 18.528674 -0.171025 2.658951 6.666813 2.369137 -5.285174 0.000000 0.000000 0.000000 19.322337 11.019293 1.706149 -50.882304 -18.429577 -8.760334 38.272542 -1.875285 -10.597342 39.077093 1.835262 -0.015585 -16.981693 0.829526 1.056459 0.000000 0.000000 0.000000 18.087026 3.076325 3.592285 0.962359 0.287759 -0.002340 -3.969066 -0.196756 -0.007108 0.492623 -1.278488 0.283904 0.000000 0.000000 0.000000 -1.601408 -0.024291 -0.912928 -10.992718 0.184603 -7.419775 -25.566119 8.020584 2.248342 0.000000 0.000000 0.000000 -4.483546 0.104088 0.239624 10.593955 -4.658979 31.247012 5.071690 6.587875 -0.939886 -50.303780 -16.587994 12.307014 -40.028365 -42.971729 -7.846882 0.000000 0.000000 0.000000 -3.722423 0.214936 0.009415 -3.736867 -18.319925 -38.617852 5.146066 3.068101 3.493599 -100.870337 11.907807 44.093874 -33.060691 55.314123 2.361817 0.000000 0.000000 0.000000 
-6.343242 121.838173 225.019470 0.000000 0.000000 0.000000 16.021245 6.177575 1.751047 -23.554507 12.839449 11.926635 47.036094 13.407649 1.847963 16.093604 0.392112 1.767967 6.802599 2.671667 -8.331013 0.000000 0.000000 0.000000 15.603577 12.823673 1.141781 -52.800040 -18.403091 -9.260926 40.478273 0.923720 -10.836816 35.713751 0.381865 -0.698417 -20.150993 0.299311 1.562288 0.000000 0.000000 0.000000 14.271710 4.966900 2.674466 2.231744 -0.168303 -0.145735 -3.987713 -0.744087 0.292510 0.795143 -0.312736 0.253493 0.000000 0.000000 0.000000 -1.776291 -0.354217 -1.001407 -8.622468 0.274419 -6.949845 -27.288549 7.022150 3.258041 0.000000 0.000000 0.000000 -4.936814 -0.238499 0.189420 10.479479 -4.277080 32.535517 4.446604 7.036363 -1.294799 -48.312954 -13.223448 14.829655 -40.834351 -40.646183 -6.906002 0.000000 0.000000 0.000000 -3.948957 -0.019711 0.136939 -4.683198 -19.032676 -40.862017 4.963589 2.458856 3.912002 -97.478766 14.196532 39.608861 -30.415888 51.290117 -4.093668 0.000000 0.000000 0.000000 
-6.584783 117.818451 233.184296 0.000000 0.000000 0.000000 11.894211 7.654351 0.957456 -24.395574 13.778199 13.171393 47.892627 13.367172 0.378343 11.176630 0.496279 1.882325 5.177835 2.851343 -9.676425 0.000000 0.000000 0.000000 11.674111 14.820100 0.472278 -52.343981 -20.153684 -9.765244 40.253522 2.708219 -10.533956 32.788832 -1.248712 -1.548033 -20.550386 -0.255463 2.364994 0.000000 0.000000 0.000000 10.091184 6.874810 1.599455 3.340578 -0.474526 -0.002603 -3.863523 -1.436337 0.583903 1.127748 0.332413 0.167422 0.000000 0.000000 0.000000 -1.979823 -0.868014 -0.993445 -5.993753 0.483375 -6.138105 -27.344842 5.841539 4.488914 0.000000 0.000000 0.000000 -5.195593 -0.767810 0.069113 10.550668 -3.856598 33.807944 4.073940 6.818836 -1.606438 -45.370614 -8.799140 16.667424 -41.327839 -39.024098 -6.058878 0.000000 0.000000 0.000000 -4.128364 -0.469715 0.291749 -4.853316 -19.282112 -41.812970 4.591864 1.599691 3.880457 -92.111234 15.866335 34.862051 -30.435016 49.387927 -6.731204 0.000000 0.000000 0.000000 
-7.073748 115.219177 240.942215 0.000000 0.000000 0.000000 8.034669 9.077727 0.186561 -24.674885 16.216196 13.164222 45.789991 12.544075 0.070508 4.773133 -0.391246 2.246853 2.098119 2.826339 -8.904237 0.000000 0.000000 0.000000 7.890953 16.906221 -0.143341 -49.626717 -23.249904 -9.812189 37.018160 3.430237 -9.791162 29.099645 -3.000942 -3.091477 -17.081625 -0.555170 3.389524 0.000000 0.000000 0.000000 5.845354 8.626866 0.584380 4.070564 -0.634874 0.351202 -3.690616 -2.152522 0.820838 1.274830 0.174582 0.020914 0.000000 0.000000 0.000000 -2.198719 -1.478019 -0.909425 -2.881302 0.786873 -5.069502 -25.656195 4.710635 5.802860 0.000000 0.000000 0.000000 -5.307939 -1.395439 -0.058105 10.713764 -3.211858 35.068278 3.862113 6.180170 -1.791870 -42.502932 -4.369993 17.452870 -41.817847 -38.530368 -5.838020 0.000000 0.000000 0.000000 -4.296860 -1.062848 0.454436 -4.314553 -19.185214 -41.442924 4.386922 0.797688 3.524053 -85.842248 16.296910 30.287070 -32.445820 51.463068 -5.703485 0.000000 0.000000 0.000000 
-7.588777 114.223015 248.669601 0.000000 0.000000 0.000000 4.824607 10.518187 -0.380876 -24.193338 19.312170 12.050246 40.487691 10.220224 0.854161 -0.387143 -2.102411 1.438116 -1.805968 2.500630 -6.389060 0.000000 0.000000 0.000000 4.439608 18.930723 -0.508325 -45.310611 -26.827675 -9.350809 31.678998 3.374885 -8.799965 25.067962 -4.242180 -5.102138 -11.553974 -0.398298 4.357612 0.000000 0.000000 0.000000 2.176749 10.206509 -0.203498 4.153235 -0.680974 0.777088 -3.613766 -2.778891 0.931270 1.486365 0.067215 -0.345736 0.000000 0.000000 0.000000 -2.451967 -2.084604 -0.829291 0.714380 1.224835 -3.938016 -22.395564 3.694647 7.111927 0.000000 0.000000 0.000000 -5.406399 -2.021893 -0.195996 10.871538 -2.301404 36.436942 3.613278 5.364858 -1.722644 -40.677772 -0.846299 17.519309 -42.512047 -38.966895 -6.420309 0.000000 0.000000 0.000000 -4.483833 -1.694417 0.547598 -3.141246 -18.755688 -40.050009 4.204876 -0.183836 2.791094 -80.032223 15.749236 26.525118 -36.050988 55.688636 -1.440200 0.000000 0.000000 0.000000 
-8.018383 114.764832 256.187988 0.000000 0.000000 0.000000 2.256032 11.650515 -0.686663 -23.119871 22.065981 10.187311 33.330794 6.573188 2.082738 -2.096863 -3.919049 -0.620933 -5.344075 1.870659 -3.086081 0.000000 0.000000 0.000000 1.404352 20.070519 -0.512192 -40.547568 -29.939642 -8.615029 25.644801 3.119746 -7.906265 21.959516 -4.399479 -6.369177 -6.817871 0.058819 4.875791 0.000000 0.000000 0.000000 -0.613892 11.543818 -0.772292 3.525424 -0.668734 1.131815 -3.729630 -3.261122 0.864058 1.226122 0.055260 -0.739644 0.000000 0.000000 0.000000 -2.881002 -2.583062 -0.833887 4.597914 1.749688 -2.930942 -18.042643 2.793528 8.352022 0.000000 0.000000 0.000000 -5.617766 -2.542517 -0.376835 10.971405 -1.178854 37.962174 3.428079 4.673428 -1.213464 -40.334238 0.919744 17.317111 -43.252176 -39.402036 -7.537234 0.000000 0.000000 0.000000 -4.790967 -2.237744 0.497567 -1.576321 -17.980393 -38.200466 4.158629 -0.871695 1.794181 -75.944436 15.200699 23.484856 -40.153839 58.149205 4.323053 0.000000 0.000000 0.000000 
-8.201301 116.218979 263.812775 0.000000 0.000000 0.000000 0.294838 12.319182 -0.823577 -21.780824 24.060362 7.874443 26.443759 2.928513 3.122055 -0.361003 -4.814161 -2.460105 -6.746151 1.164182 -0.440894 0.000000 0.000000 0.000000 -0.907013 20.397045 -0.368432 -36.158636 -32.053156 -7.929456 20.442205 3.129526 -7.268879 20.099609 -3.400252 -6.224982 -4.638075 0.504450 4.830517 0.000000 0.000000 0.000000 -2.701486 12.328954 -1.145653 2.335528 -0.673530 1.303952 -4.029878 -3.596001 0.629168 1.086525 -0.044979 -0.996520 0.000000 0.000000 0.000000 -3.526207 -2.957070 -0.950052 8.323533 2.169552 -2.167663 -13.197351 1.821101 9.496424 0.000000 0.000000 0.000000 -5.979215 -2.923823 -0.586968 10.992662 0.085415 39.692565 3.229830 4.142770 -0.573941 -41.109720 0.580154 17.070499 -43.599495 -38.790526 -8.575419 0.000000 0.000000 0.000000 -5.233074 -2.641640 0.300666 0.052579 -16.871503 -36.620080 4.246432 -1.237930 0.816442 -74.034954 15.558433 21.243213 -41.983998 56.396018 8.147846 0.000000 0.000000 0.000000 
-7.992829 117.591568 271.116638 0.000000 0.000000 0.000000 -1.174764 12.546185 -0.927402 -20.253258 25.243169 5.281928 20.492818 0.295225 3.966792 2.729894 -4.382947 -2.911376 -5.754856 0.731341 0.829992 0.000000 0.000000 0.000000 -2.522943 19.936581 -0.266472 -32.359514 -32.968544 -7.355960 17.067874 3.491388 -6.835885 18.720965 -1.617308 -5.362168 -4.827839 0.778683 4.372752 0.000000 0.000000 0.000000 -4.049702 12.614330 -1.461669 0.868558 -0.759019 1.314581 -4.461892 -3.856969 0.313332 1.162810 0.362233 -1.029960 0.000000 0.000000 0.000000 -4.425327 -3.246244 -1.130396 11.462624 2.451857 -1.716536 -8.587418 0.795852 10.488228 0.000000 0.000000 0.000000 -6.471588 -3.206815 -0.829543 10.928839 1.392218 41.467089 3.183096 3.603129 -0.009754 -42.100637 -1.336776 16.719221 -43.094645 -36.552594 -8.931111 0.000000 0.000000 0.000000 -5.819469 -2.929126 0.016333 1.545289 -15.617952 -35.770746 4.099571 -1.302583 0.026707 -74.126219 17.112035 19.793333 -41.031211 50.547553 9.195899 0.000000 0.000000 0.000000 
-7.593254 118.323372 277.757080 0.000000 0.000000 0.000000 -2.404111 12.191290 -1.070290 -18.540642 25.892315 2.571288 15.694745 -1.007817 4.708828 4.802131 -3.205287 -1.610182 -4.026100 0.595781 0.961802 0.000000 0.000000 0.000000 -3.613146 18.981299 -0.324284 -29.139055 -32.897613 -6.870346 16.287535 3.581131 -6.567609 16.750960 -0.070833 -5.095521 -5.712380 0.841450 3.812107 0.000000 0.000000 0.000000 -5.042095 12.277934 -1.793527 -0.534439 -0.955719 1.205158 -4.939755 -4.116250 0.019433 1.301960 0.406319 -0.844712 0.000000 0.000000 0.000000 -5.442776 -3.499806 -1.286713 13.757666 2.533476 -1.576722 -4.824871 -0.160231 11.220328 0.000000 0.000000 0.000000 -6.987716 -3.446992 -1.030656 10.804163 2.675717 43.199861 3.389685 3.135192 0.512622 -42.636223 -4.017212 16.182067 -41.629265 -32.737957 -8.390087 0.000000 0.000000 0.000000 -6.544424 -3.175377 -0.263078 2.667007 -14.423713 -35.983274 4.098880 -1.117578 -0.221759 -75.602920 19.364389 19.093538 -39.239666 42.707155 9.244752 0.000000 0.000000 0.000000 
-6.958881 118.268784 283.332336 0.000000 0.000000 0.000000 -3.609386 11.419876 -1.270464 -17.205810 26.034328 0.067105 12.475832 -1.537469 5.460114 5.409092 -2.035258 0.721896 -3.073952 0.583429 0.428702 0.000000 0.000000 0.000000 -4.348674 18.211555 -0.539057 -26.630407 -32.272350 -6.581635 18.042279 3.079928 -6.238280 14.312001 0.763565 -5.900988 -5.935443 0.751031 3.360374 0.000000 0.000000 0.000000 -5.854372 11.501543 -2.115911 -1.638895 -1.221782 1.070368 -5.410523 -4.387838 -0.173313 1.717922 0.200787 -0.453391 0.000000 0.000000 0.000000 -6.362659 -3.785084 -1.349680 15.091334 2.441792 -1.703869 -2.234758 -0.918718 11.536750 0.000000 0.000000 0.000000 -7.449981 -3.708074 -1.140291 10.632188 3.893625 44.810446 3.514067 2.985286 0.734545 -42.651932 -6.568011 15.328066 -39.685827 -28.229722 -7.294626 0.000000 0.000000 0.000000 -7.290106 -3.447012 -0.455593 3.377667 -13.450919 -37.262848 4.113289 -0.920157 -0.069327 -77.656068 21.303532 19.054882 -38.130508 35.600332 9.823246 0.000000 0.000000 0.000000 
-6.292244 117.648209 287.772400 0.000000 0.000000 0.000000 -4.814218 10.472761 -1.460412 -16.789771 25.813718 -1.979169 10.894052 -2.006757 6.077470 5.358274 -1.638950 3.100415 -3.159426 0.582230 -0.127814 0.000000 0.000000 0.000000 -5.153061 17.687613 -0.814953 -24.936942 -31.276420 -6.663909 21.240734 2.353136 -5.714986 12.197083 1.334212 -6.853674 -5.519273 0.576587 3.133927 0.000000 0.000000 0.000000 -6.549407 10.647119 -2.313333 -2.342553 -1.514159 0.970819 -5.871343 -4.680818 -0.233097 1.866134 -0.017683 -0.199661 0.000000 0.000000 0.000000 -7.030825 -4.112254 -1.289146 15.606530 2.310706 -2.051935 -0.861286 -1.275376 11.325835 0.000000 0.000000 0.000000 -7.842722 -3.985848 -1.162655 10.440134 4.952497 46.163094 3.801610 3.081910 0.917125 -42.559349 -8.456728 14.165638 -37.836717 -24.293176 -6.125991 0.000000 0.000000 0.000000 -7.987241 -3.771169 -0.535543 3.753451 -12.659645 -39.423698 4.360875 -0.901070 0.640414 -79.533824 22.226436 19.013290 -37.969729 30.592199 11.111653 0.000000 0.000000 0.000000 
